<svg width="1200" height="800" viewBox="0 0 1200 800" fill="none" xmlns="http://www.w3.org/2000/svg">
<rect width="1200" height="800" fill="#F6F7FB"/>
<rect width="1200" height="800" fill="url(#paint0_linear_1_1)"/>
<circle cx="942" cy="166" r="98" fill="#FFE1E4" fill-opacity="0.8"/>
<path d="M0 592L124 540L249 570L373 495L498 540L622 455L747 507L871 462L996 520L1120 474L1200 496V800H0V592Z" fill="#B0192C"/>
<path d="M0 648L124 606L249 628L373 566L498 610L622 532L747 590L871 540L996 608L1120 568L1200 592V800H0V648Z" fill="#7B1020"/>
<rect x="398" y="220" width="404" height="292" rx="20" fill="#FFF6F7"/>
<rect x="446" y="270" width="308" height="242" rx="16" fill="#FFF0F2"/>
<rect x="582" y="296" width="36" height="216" fill="#D53A4C"/>
<rect x="446" y="380" width="308" height="28" fill="#D53A4C"/>
<path d="M430 250L600 160L770 250H430Z" fill="#D53A4C"/>
<rect x="562" y="168" width="76" height="58" rx="10" fill="#7B1020"/>
<rect x="520" y="450" width="160" height="62" rx="18" fill="#7B1020"/>
<rect x="82" y="658" width="236" height="64" rx="32" fill="#FFF6F7" fill-opacity="0.18"/>
<text x="116" y="699" fill="#FFF6F7" font-family="Arial, sans-serif" font-size="34" font-weight="700">Mestsky servis</text>
<defs>
<linearGradient id="paint0_linear_1_1" x1="600" y1="0" x2="600" y2="800" gradientUnits="userSpaceOnUse">
<stop stop-color="#FFF7F8"/>
<stop offset="1" stop-color="#F0F2F8"/>
</linearGradient>
</defs>
</svg>
